<?xml version="1.0" encoding="UTF-8" standalone="no"?>
<!-- Created with Inkscape (http://www.inkscape.org/) -->

<svg
   xmlns:dc="http://purl.org/dc/elements/1.1/"
   xmlns:cc="http://creativecommons.org/ns#"
   xmlns:rdf="http://www.w3.org/1999/02/22-rdf-syntax-ns#"
   xmlns:svg="http://www.w3.org/2000/svg"
   xmlns="http://www.w3.org/2000/svg"
   xmlns:sodipodi="http://sodipodi.sourceforge.net/DTD/sodipodi-0.dtd"
   xmlns:inkscape="http://www.inkscape.org/namespaces/inkscape"
   width="3in"
   height="3in"
   viewBox="0 0 269.99999 270"
   id="svg2"
   version="1.1"
   inkscape:version="0.91 r13725"
   sodipodi:docname="creature.svg">
  <defs
     id="defs4" />
  <sodipodi:namedview
     id="base"
     pagecolor="#ffffff"
     bordercolor="#666666"
     borderopacity="1.0"
     inkscape:pageopacity="0.0"
     inkscape:pageshadow="2"
     inkscape:zoom="2"
     inkscape:cx="132.79282"
     inkscape:cy="131.74267"
     inkscape:document-units="px"
     inkscape:current-layer="layer1"
     showgrid="false"
     units="in"
     inkscape:window-width="1366"
     inkscape:window-height="705"
     inkscape:window-x="-8"
     inkscape:window-y="68"
     inkscape:window-maximized="1" />
  <metadata
     id="metadata7">
    <rdf:RDF>
      <cc:Work
         rdf:about="">
        <dc:format>image/svg+xml</dc:format>
        <dc:type
           rdf:resource="http://purl.org/dc/dcmitype/StillImage" />
        <dc:title></dc:title>
      </cc:Work>
    </rdf:RDF>
  </metadata>
  <g
     inkscape:label="Layer 1"
     inkscape:groupmode="layer"
     id="layer1"
     transform="translate(0,-782.36219)">
    <circle
       style="opacity:1;fill:#729fcf;fill-opacity:1;stroke:none;stroke-width:3;stroke-linecap:round;stroke-linejoin:round;stroke-miterlimit:4;stroke-dasharray:none;stroke-dashoffset:0;stroke-opacity:1"
       id="path4148"
       cx="135"
       cy="917.36218"
       r="119.5" />
    <path
       style="fill:#000000"
       d="m 128.8001,991.27906 c 2.66194,-0.7695 6.5263,-1.39909 8.58746,-1.39909 8.89446,0 19.1866,-2.60392 25.3977,-6.42565 2.6156,-1.6094 4.55942,-2.1659 8.56692,-2.45263 3.78101,-0.27053 5.80379,-0.81244 7.47534,-2.00269 1.43166,-1.01943 4.03284,-1.84774 6.93148,-2.20722 5.33992,-0.66224 12.27127,-3.58074 13.3671,-5.62833 0.41227,-0.77032 2.66341,-2.42065 5.00255,-3.66739 2.33913,-1.24674 6.18315,-3.42911 8.54225,-4.84968 4.86425,-2.92911 9.78735,-3.43765 14.4439,-1.49202 6.13907,2.56507 9.78956,0.4196 14.15698,-8.32036 4.58564,-9.1767 4.70395,-19.05587 0.45334,-37.85879 -2.35617,-10.42273 -5.78403,-17.82423 -9.98956,-21.56965 -1.72461,-1.53592 -4.4152,-4.91528 -5.9791,-7.50969 -1.5639,-2.59442 -5.90575,-7.99411 -9.64856,-11.99931 -3.7428,-4.0052 -8.66272,-9.27607 -10.93317,-11.71303 -3.95954,-4.24995 -6.95653,-5.95858 -12.49502,-7.12359 -1.00204,-0.21078 -3.82915,-1.87486 -6.28247,-3.69795 -3.61773,-2.68838 -5.67827,-3.60089 -10.90467,-4.82917 -6.52191,-1.53273 -8.46605,-2.1088 -13.71637,-4.06431 -2.05489,-0.76535 -3.97646,-0.92718 -6.54508,-0.5512 -1.99988,0.29273 -6.90869,0.57711 -10.90846,0.63196 -6.74394,0.0925 -7.59272,0.27316 -11.68246,2.48692 l -4.41015,2.3872 -4.22046,-1.57907 c -5.97654,-2.23611 -9.86745,-1.7021 -18.14721,2.49062 -3.66158,1.85416 -7.468948,3.37303 -8.460798,3.37526 -3.67197,0.008 -7.60767,1.64977 -9.86548,4.11472 -1.90051,2.07487 -3.04197,2.61987 -6.5729,3.13824 -8.22244,1.20712 -15.060487,4.74999 -17.654897,9.14718 -0.78716,1.33414 -2.83339,3.14105 -4.54718,4.01536 -1.71379,0.87431 -4.05747,2.28271 -5.20818,3.12978 -3.00712,2.21361 -8.36901,9.55214 -10.68961,14.63027 -1.09668,2.39986 -3.03786,5.34515 -4.31372,6.54508 -4.29827,4.04246 -8.76579,13.93952 -8.76579,19.4192 0,1.13591 -0.80224,3.28547 -1.78275,4.77681 -3.58444,5.45182 -3.74212,10.86705 -0.50479,17.33594 0.82264,1.64381 1.8248,5.03224 2.22702,7.52985 1.69982,10.5549 8.90648,19.04491 19.81628,23.34516 3.66953,1.44639 17.61621,4.4744 25.130627,5.45618 2.58349,0.33754 3.91935,0.87904 4.17785,1.69352 0.20901,0.65853 1.77252,2.77788 3.47447,4.70968 2.995,3.3995 3.40993,3.60464 12.91206,6.38384 23.734738,6.94197 23.971138,6.97154 33.565508,4.19805 z m -11.95639,-3.16524 c -1.35437,-1.35436 -0.95341,-3.11344 0.8204,-3.59926 0.66301,-0.1816 2.82949,-0.5518 4.81441,-0.82266 1.98491,-0.27087 4.84838,-0.98842 6.36327,-1.59456 2.42955,-0.97211 2.75433,-1.39288 2.75433,-3.56841 0,-1.70748 -0.33564,-2.46634 -1.09084,-2.46634 -0.59997,0 -1.09085,0.63519 -1.09085,1.41154 0,2.0845 -1.22292,2.53183 -7.40033,2.70692 -3.947,0.11187 -6.71645,0.64891 -9.454,1.83325 -4.76568,2.06178 -9.05211,2.05492 -12.569025,-0.0201 -1.768793,-1.04359 -3.876393,-1.56819 -6.300323,-1.56819 -4.87121,0 -5.95272,-0.71442 -7.93764,-5.2434 -2.17991,-4.97388 -2.20849,-10.40184 -0.0738,-14.01983 0.85567,-1.45025 1.55699,-3.84532 1.55848,-5.32237 0.004,-3.55552 2.05527,-6.75721 6.12383,-9.55646 1.8301,-1.25914 3.32745,-2.56359 3.32745,-2.89878 0,-0.33519 1.19939,-1.17858 2.665303,-1.8742 2.037195,-0.96671 3.676575,-1.15906 6.956665,-0.81622 5.46071,0.57076 8.09354,-0.65291 9.3054,-4.3249 0.66472,-2.01411 1.5722,-2.94918 3.87853,-3.99644 1.65594,-0.75193 3.83377,-1.37433 4.83964,-1.38311 1.00586,-0.009 3.11917,-0.70755 4.69624,-1.55281 2.30905,-1.23757 3.60769,-1.44983 6.66912,-1.09002 l 3.80172,0.44682 1.60256,-2.85137 c 0.8814,-1.56826 2.24669,-3.01982 3.03396,-3.2257 3.4894,-0.9125 7.54285,2.66205 11.15701,9.83881 1.34476,2.67033 2.80893,5.08006 3.25372,5.35496 2.10863,1.3032 1.77159,-1.30658 -0.89584,-6.93666 -1.61078,-3.39981 -3.08966,-7.16333 -3.28642,-8.36338 -0.51153,-3.11981 1.88261,-5.91825 5.60062,-6.5464 2.56224,-0.43289 3.79472,-0.0471 10.25315,3.20911 5.07974,2.56111 8.2138,3.70113 10.17496,3.70113 3.72427,0 3.60526,-0.93657 -0.25662,-2.01943 -1.6999,-0.47666 -4.64518,-2.02035 -6.54507,-3.43045 -3.84352,-2.85263 -4.53249,-5.34818 -1.97173,-7.14181 0.81544,-0.57115 3.0244,-3.28102 4.90881,-6.02191 2.72266,-3.96017 4.05091,-5.21386 6.46863,-6.10558 3.66124,-1.35037 4.49564,-2.07715 3.26087,-2.84028 -0.50979,-0.31506 -1.39351,-3.24576 -1.96383,-6.51265 -1.08756,-6.22969 -2.41935,-9.55956 -4.91493,-12.28885 -1.39165,-1.52197 -3.42432,-2.22247 -3.42432,-1.18009 0,0.2509 1.04545,2.5798 2.32322,5.17532 1.54157,3.13137 2.42612,6.14166 2.62904,8.94713 0.27009,3.73383 0.0984,4.43542 -1.46874,6.00258 -0.97602,0.97602 -2.18541,2.7664 -2.68752,3.97862 -1.21075,2.923 -3.38232,4.87327 -7.2566,6.51711 -2.49136,1.05707 -3.36545,1.9015 -3.99977,3.86406 -0.79899,2.47204 -0.8828,2.51477 -5.34956,2.72771 -4.38206,0.20888 -4.63075,0.32747 -7.24449,3.45434 -3.03502,3.63085 -4.6998,4.05956 -5.86169,1.50949 -1.11336,-2.44357 -0.16017,-5.88884 3.42728,-12.3877 4.75813,-8.61959 7.16882,-11.03691 11.9978,-12.03074 1.54991,-0.31898 2.5585,-1.24166 3.63795,-3.32806 1.3374,-2.58502 1.81225,-2.9099 4.54314,-3.10843 2.76251,-0.20083 3.15779,-0.0125 4.19846,1.99988 1.30335,2.5204 2.56594,2.9147 2.56594,0.80134 0,-2.56596 -1.49414,-4.77096 -4.22294,-6.23207 -5.12483,-2.74405 -5.95444,-10.38161 -1.36652,-12.58054 2.62564,-1.25843 8.04529,-0.15953 11.80865,2.39436 2.76126,1.87384 5.4165,2.42129 5.4165,1.11675 0,-1.08422 -5.66771,-5.04527 -10.02408,-7.00562 -3.43439,-1.54547 -3.76051,-1.8826 -3.06974,-3.17332 1.19949,-2.24126 3.6412,-2.43342 7.64871,-0.60192 2.73128,1.24825 5.06385,1.67799 9.44488,1.74008 8.11046,0.11496 8.18203,0.12833 9.90345,1.84975 1.76801,1.76801 0.92859,2.79254 -2.30389,2.81195 -1.01994,0.006 -2.20479,0.3615 -2.63301,0.78971 -0.55328,0.55328 -1.70017,0.14875 -3.96341,-1.39799 -3.49414,-2.38795 -6.45737,-3.50161 -6.45737,-2.42685 0,0.37834 1.7999,2.2256 3.99977,4.10501 5.00483,4.27576 5.17641,6.11829 1.27265,13.66681 l -2.72711,5.27329 0.0361,9.09039 c 0.0369,9.26315 0.8864,12.93518 3.16486,13.67923 0.76622,0.25022 0.89527,-0.0976 0.51972,-1.40076 -1.06518,-3.69627 -1.3772,-14.91779 -0.48957,-17.60732 0.76694,-2.32385 1.3101,-2.7861 4.09889,-3.48832 3.95091,-0.99486 4.38409,-2.81853 0.66949,-2.81853 -1.39992,0 -2.54531,-0.21454 -2.54531,-0.47677 0,-0.26223 0.83977,-1.57778 1.86615,-2.92344 1.02639,-1.34566 2.05367,-3.66732 2.28285,-5.15925 0.60697,-3.95112 1.38779,-5.08062 3.89252,-5.63075 2.60768,-0.57275 6.5031,0.80182 6.5031,2.29473 0,0.56001 -0.79602,1.3809 -1.76893,1.82418 -4.20542,1.91612 -5.80218,13.23017 -2.7043,19.16169 0.62669,1.19993 1.49309,5.12697 1.92533,8.72677 0.72697,6.05441 0.85898,6.41283 1.76089,4.78096 0.53626,-0.97025 1.1276,-3.75191 1.3141,-6.18146 0.28269,-3.68266 0.0263,-5.08258 -1.54136,-8.41712 -3.098,-6.58952 -2.28698,-14.05339 1.63397,-15.03748 3.65582,-0.91755 6.84704,2.41529 12.54012,13.09661 2.08924,3.91981 2.38231,5.20591 2.66997,11.71695 0.20776,4.70253 0.70715,7.92251 1.3987,9.01861 0.64612,1.02409 0.8926,2.43376 0.61733,3.53054 -0.49139,1.95781 -0.44247,1.95864 -6.0576,-0.10301 -1.80172,-0.66152 -3.91827,-0.94519 -5.00926,-0.67137 -1.8434,0.46266 -1.87676,0.40755 -1.37429,-2.27085 0.95926,-5.1133 0.53779,-16.43618 -0.68104,-18.29635 -1.33739,-2.04111 -3.70588,-2.39846 -2.9045,-0.43822 2.31787,5.66961 2.2153,12.28768 -0.3014,19.44818 -2.56607,7.30091 -7.35626,11.9962 -12.24439,12.00182 -1.29992,10e-4 -2.3635,-0.19183 -2.3635,-0.42963 0,-0.23779 1.13154,-3.75577 2.51454,-7.81773 1.38299,-4.06196 2.7365,-9.58753 3.0078,-12.27907 0.42868,-4.25292 0.32788,-4.95715 -0.76986,-5.37839 -1.84838,-0.70929 -2.54698,0.93207 -2.55965,6.0139 -0.0166,6.65592 -2.34309,13.41854 -5.60009,16.27822 -2.51093,2.20464 -2.719,2.26314 -3.62799,1.02002 -0.53035,-0.72531 -0.9724,-1.82889 -0.98231,-2.4524 -0.0281,-1.76507 -4.86647,-7.93797 -7.46262,-9.52092 -2.7759,-1.69255 -7.06396,-1.93372 -7.06396,-0.39729 0,0.56818 0.91316,1.23363 2.02925,1.47876 5.069,1.11334 9.59814,5.87127 9.60372,10.08884 0.003,2.136 -1.37493,3.73728 -7.24315,8.41832 -1.98253,1.58144 -3.8381,4.03065 -5.14108,6.78579 -2.49482,5.27531 -3.97223,6.99396 -7.17768,8.34974 -6.13427,2.59455 -16.71709,2.489 -18.71128,-0.18661 -0.51367,-0.68919 -0.68332,-2.85164 -0.45088,-5.74731 0.44595,-5.55559 -0.14515,-8.40367 -1.74413,-8.40367 -0.93772,0 -1.0986,0.55274 -0.80279,2.75819 0.27099,2.02032 0.005,3.20916 -0.99509,4.44395 -0.75078,0.92717 -1.36505,2.42757 -1.36505,3.33422 0,3.52689 -3.48153,4.09481 -7.22514,1.1786 -1.73174,-1.34898 -1.74951,-1.46877 -0.80313,-5.4137 1.1009,-4.58909 0.26016,-7.91873 -2.35259,-9.31702 -1.33895,-0.71659 -1.41216,-0.61319 -0.92074,1.30045 0.65683,2.55772 0.65527,4.26089 -0.0101,11.00476 -0.49181,4.98481 -0.67838,5.41363 -3.23713,7.44019 -2.69246,2.13247 -11.29034,6.54007 -12.75983,6.54116 -0.42062,3.2e-4 -2.30319,1.49587 -4.18351,3.32344 -4.16374,4.04696 -6.0368,4.07766 -8.14189,0.13345 -1.3784,-2.58264 -3.411705,-3.54169 -4.336478,-2.04539 -0.2324,0.37603 0.56643,1.81006 1.775158,3.18673 1.20873,1.37668 2.1977,2.98182 2.1977,3.56699 0,1.94496 -2.815725,3.6756 -6.566538,4.03601 -4.79729,0.46095 -4.39667,2.01235 0.48851,1.89177 4.394998,-0.10848 8.216588,-1.97892 13.202918,-6.46206 2.87046,-2.5808 5.39767,-3.97477 10.53485,-5.81087 3.71717,-1.32856 8.38215,-3.4203 10.36664,-4.6483 4.66473,-2.88653 12.08874,-3.74368 17.06192,-1.96988 1.7999,0.64198 5.63813,1.37723 8.52941,1.63389 3.94504,0.35021 5.33462,0.75795 5.56845,1.63393 0.17136,0.64199 0.51426,2.07679 0.76198,3.18846 0.31387,1.40845 1.62936,2.77536 4.33923,4.50885 4.42421,2.83012 4.97101,3.77725 4.3658,7.56202 -0.31122,1.94627 -0.12139,2.96258 0.67716,3.62531 0.92053,0.76397 1.24219,0.67319 1.88756,-0.5327 0.42788,-0.79949 0.77795,-2.55796 0.77795,-3.90773 0,-1.34977 0.424,-3.03398 0.94223,-3.74269 1.07974,-1.47664 9.98279,-3.79138 17.42035,-4.52917 5.05251,-0.50121 5.9493,-1.12453 3.50215,-2.4342 -2.10236,-1.12515 -5.21055,-0.91745 -10.34606,0.69136 -5.33416,1.67105 -12.74744,2.58882 -15.44413,1.91199 -2.26189,-0.5677 -4.07407,-3.81616 -4.07407,-7.30306 0,-3.47647 2.24367,-4.85811 8.54514,-5.26205 7.61675,-0.48826 9.63563,-0.92743 9.63563,-2.09609 0,-1.10166 -1.79295,-1.39405 -6.72689,-1.09701 -3.04064,0.18306 -3.28947,-0.28885 -1.49966,-2.84416 0.67511,-0.96384 1.41599,-2.91229 1.64642,-4.32989 0.36548,-2.24849 1.02095,-2.92846 5.13581,-5.32778 2.59427,-1.51268 5.81013,-3.05503 7.14636,-3.42744 3.22872,-0.89987 7.15622,0.4423 9.13673,3.12235 1.38637,1.87606 1.51838,2.99195 1.46263,12.36293 -0.0728,12.23511 -1.17085,16.86794 -5.0806,21.4356 -2.90953,3.39913 -7.23709,5.95504 -10.0828,5.95504 -1.62632,0 -1.78258,-0.23142 -1.41094,-2.08967 0.32622,-1.63109 0.0568,-2.3426 -1.22754,-3.24221 -2.17081,-1.5205 -3.01549,-0.88928 -1.94728,1.45518 0.78886,1.73137 0.64986,2.06545 -1.66369,3.99849 -5.13116,4.28726 -17.93986,5.86745 -23.7079,2.92482 -4.2323,-2.15916 -8.92999,-6.28373 -12.35125,-10.84441 -1.64504,-2.19291 -3.28131,-3.87172 -3.63615,-3.73069 -0.35485,0.14103 -0.64517,1.36971 -0.64517,2.7304 0,2.44665 -0.0495,2.48418 -4.48454,3.3963 -5.18365,1.0661 -7.10306,1.94745 -9.87827,4.53587 -2.09935,1.95804 -2.62739,3.77485 -1.09714,3.77485 0.4965,0 2.68458,-1.2272 4.86238,-2.72712 3.61787,-2.49172 4.38389,-2.72711 8.87449,-2.72711 4.49137,0 5.12195,0.19387 7.31872,2.25012 1.32215,1.23757 3.97004,3.34678 5.88423,4.68714 2.05782,1.44093 3.39178,2.89916 3.26367,3.56771 -0.30435,1.58844 -4.51509,2.85867 -9.65293,2.91196 -6.49032,0.0673 -12.33538,1.2056 -16.88398,3.28801 -5.52846,2.53101 -9.07964,3.04308 -10.59497,1.52775 z m 73.66435,-35.19325 c 3.12022,-2.97606 3.76419,-4.06053 4.25504,-7.16565 0.31811,-2.01237 1.31164,-4.68861 2.20784,-5.9472 1.27795,-1.79471 1.39413,-2.28836 0.53861,-2.28836 -1.44775,0 -4.05028,3.73981 -4.94879,7.11137 -0.40087,1.50419 -1.80273,3.67531 -3.15608,4.88794 -2.07857,1.86244 -4.25343,6.90869 -2.97755,6.90869 0.22235,0 2.05876,-1.57805 4.08093,-3.50679 z m -74.91101,2.02336 c 0,-0.41592 -0.64584,-2.02215 -1.4352,-3.56942 -0.78936,-1.54727 -1.64932,-4.15226 -1.91102,-5.78887 -0.29476,-1.84335 -0.86424,-2.97566 -1.49655,-2.97566 -2.771,0 -1.90052,7.9132 1.21296,11.02669 2.10983,2.10983 3.62981,2.65724 3.62981,1.30726 z m 53.83307,-21.47168 c 1.12927,-2.97019 0.83078,-5.78344 -0.83881,-7.90599 -1.81109,-2.30242 -3.47097,-1.53925 -2.12444,0.97675 0.47312,0.88404 0.62302,2.62281 0.35108,4.07237 -0.82487,4.3969 1.18918,6.59961 2.61217,2.85687 z m 53.08784,-21.81692 c 1.37609,-3.61938 0.32721,-12.67919 -1.4679,-12.67919 -0.77677,0 -1.72788,11.0974 -1.11627,13.02441 0.65293,2.05717 1.72525,1.91391 2.58417,-0.34522 z m -57.30671,-8.25588 c -0.15065,-1.8618 0.27484,-2.98215 1.6959,-4.46541 2.50039,-2.60985 1.24827,-3.26595 -2.00891,-1.05264 -2.85205,1.93802 -3.48566,3.08196 -3.48566,6.29313 0,1.93881 0.2135,2.14595 1.99989,1.94041 1.79404,-0.20643 1.97919,-0.48593 1.79878,-2.71549 z m -95.306155,64.75536 c -0.53373,-0.33835 -0.85969,-1.49727 -0.72724,-2.58561 0.23205,-1.90667 0.41634,-1.98337 5.528987,-2.30101 5.96369,-0.37051 7.0809,0.46583 4.95549,3.70963 -1.01707,1.55224 -1.73333,1.81086 -4.98877,1.80133 -2.09066,-0.006 -4.23647,-0.28708 -4.768467,-0.62434 z m -17.30769,-2.92894 c -2.45167,-1.15985 -4.64143,-2.40628 -4.86614,-2.76986 -0.23474,-0.37982 1.36222,-0.53297 3.75375,-0.35998 2.77971,0.20106 5.08989,-0.0865 6.95483,-0.86573 4.05847,-1.69573 6.12759,-1.50621 7.11061,0.65129 0.61968,1.36004 0.61968,2.27612 0,3.63615 -0.73116,1.60472 -1.27825,1.81801 -4.66192,1.81751 -2.71954,-4.1e-4 -5.12891,-0.61339 -8.29113,-2.10938 z M 203.6512,959.51809 c 0.34831,-1.49991 0.6411,-6.92478 0.65064,-12.05525 l 0.0174,-9.32813 2.12575,-2.12575 c 2.432,-2.432 5.98303,-2.8413 8.62089,-0.99367 1.45403,1.01844 1.61628,1.7508 1.61628,7.29566 0,3.83359 0.41237,7.15053 1.09085,8.77435 0.59996,1.43592 1.09084,3.06167 1.09084,3.61279 0,1.65625 -2.16141,1.13421 -4.34508,-1.04946 -1.75722,-1.75723 -2.12657,-2.85258 -2.5748,-7.63593 -0.35089,-3.74449 -0.82662,-5.58442 -1.4439,-5.58442 -0.50632,0 -1.11791,0.73633 -1.35908,1.63627 -0.71528,2.66903 -0.51821,11.33107 0.26886,11.8175 1.4411,0.89065 0.67589,3.02749 -2.03054,5.67026 -3.59038,3.50591 -4.54813,3.49712 -3.72807,-0.0343 z M 67.834445,958.82997 c -2.49344,-0.48538 -3.29803,-2.06238 -3.24666,-6.36344 0.0263,-2.19654 -0.4307,-5.1387 -1.01543,-6.53816 -1.47596,-3.53246 -1.32804,-6.42163 0.4441,-8.67455 2.18942,-2.78339 7.870897,-2.7081 13.603537,0.18029 2.28845,1.15304 6.20617,2.66881 8.70602,3.36837 2.65846,0.74394 4.5452,1.67327 4.5452,2.23877 0,2.34146 -11.99501,4.01625 -18.28872,2.55354 -1.45929,-0.33915 -3.029237,-0.38427 -3.488777,-0.10026 -2.3982,1.48217 6.062327,4.02793 11.613647,3.49452 2.58961,-0.24884 3.86314,-0.0522 4.48063,0.69183 0.64531,0.77756 0.65252,1.16938 0.0286,1.55497 -0.45874,0.28352 -1.33289,1.70933 -1.94256,3.16848 -1.6448,3.93655 -3.55277,4.94884 -9.10916,4.83292 -2.61085,-0.0545 -5.459547,-0.23775 -6.330447,-0.40728 z m -21.74921,-1.2481 c -6.96487,-2.18051 -9.65004,-5.21133 -10.17095,-11.48025 -0.17114,-2.0596 -0.82724,-4.53236 -1.45799,-5.49502 -1.42963,-2.18189 -0.87205,-3.81362 1.30436,-3.81719 2.26479,-0.004 6.15277,-2.47986 6.72507,-4.28302 0.25786,-0.81244 0.12345,-2.12252 -0.29869,-2.91129 -1.05033,-1.96257 -0.96683,-6.81604 0.14152,-8.226 0.49998,-0.63603 1.63992,-1.37341 2.5332,-1.63862 2.27356,-0.67502 5.28453,2.41829 5.28453,5.42902 0,1.23797 0.47647,3.17224 1.05882,4.29837 1.03688,2.00511 4.96885,4.42534 7.18952,4.42534 3.68698,0 0.47398,3.29092 -6.74185,6.90536 -3.29539,1.65067 -4.64735,1.92684 -8.18135,1.67121 -3.11227,-0.22512 -4.2336,-0.0599 -4.2336,0.62363 0,1.37629 2.44163,2.43665 5.58823,2.42686 3.47707,-0.0108 9.94943,-1.70345 12.23158,-3.19877 1.72202,-1.12831 1.73199,-1.11809 2.24506,2.30334 0.28345,1.89018 0.92666,4.41488 1.42936,5.61045 2.51266,5.97586 -5.76965,10.13577 -14.64682,7.35658 z m 182.148835,-2.06355 c -0.22039,-2.39225 0.37793,-4.14513 2.74191,-8.03303 2.55302,-4.19879 2.56196,-4.24371 2.31587,-11.63569 -0.17459,-5.24431 -0.62028,-8.14656 -1.51969,-9.89585 -1.56078,-3.03562 -1.62656,-5.07054 -0.18181,-5.62494 1.66043,-0.63717 1.30605,-4.10628 -0.72525,-7.09956 -1.46633,-2.16076 -1.8976,-3.89601 -2.23935,-9.01006 l -0.42326,-6.3339 1.49883,1.81808 c 5.00947,6.0765 9.0203,22.44058 9.09045,37.08876 0.0422,8.82772 -0.12713,10.20567 -1.68011,13.66633 -0.94991,2.11679 -2.40818,4.32576 -3.2406,4.90881 -1.85284,1.29778 -5.52229,1.39611 -5.63699,0.15105 z m -6.45457,-1.98724 c -1.12773,-2.10719 -2.36971,-13.00675 -1.85588,-16.28729 0.26732,-1.70673 1.43781,-3.98446 2.96354,-5.76694 1.38696,-1.62033 2.52173,-3.21441 2.52173,-3.54239 0,-1.2643 -1.84863,-0.49961 -4.12427,1.70604 l -2.37544,2.30237 -3.00923,-1.35697 c -4.10556,-1.85135 -7.2663,-1.74437 -9.32634,0.31566 -1.15048,1.15048 -1.9071,1.43817 -2.4237,0.92156 -1.25374,-1.25373 -0.11086,-2.7872 3.57277,-4.79374 1.92787,-1.05015 4.06268,-2.88293 4.74404,-4.07284 1.05632,-1.84475 1.67663,-2.16348 4.21055,-2.16348 3.02005,0 7.76022,1.95305 9.32954,3.84396 1.62105,1.95324 3.76547,9.46572 3.76164,13.178 -0.002,2.31274 -0.48044,4.41232 -1.27266,5.58951 -3.96095,5.88574 -4.53617,7.05234 -4.53864,9.20487 -0.003,2.65877 -1.01807,3.08837 -2.17765,0.92168 z M 88.325902,937.95271 c -1.59991,-0.50516 -5.03608,-2.03652 -7.63592,-3.40302 -4.54474,-2.38876 -5.03545,-2.48485 -12.726537,-2.49205 -5.45051,-0.005 -8.463,-0.31694 -9.454,-0.97863 -4.38429,-2.9274 -6.0765,-9.55784 -3.3727,-13.21494 1.81954,-2.46106 1.93614,-3.31408 0.52689,-3.85485 -0.57874,-0.22209 -2.17586,0.72067 -3.65577,2.15794 -4.6861,4.55109 -6.55753,1.15759 -2.18119,-3.95518 5.22895,-6.10885 9.12261,-6.56224 12.49935,-1.45547 1.77885,2.69022 1.99408,3.6635 1.93659,8.75773 -0.0641,5.68129 -0.0524,5.71881 1.3528,4.31367 0.82481,-0.82481 1.57717,-2.83421 1.7994,-4.80584 0.49231,-4.36775 1.82399,-4.19985 5.269107,0.66434 4.36043,6.15652 7.42476,8.89794 10.94134,9.78835 5.13884,1.30119 6.42439,2.03804 7.98249,4.57543 1.4988,2.4408 1.64052,4.29287 0.3543,4.63024 -0.39998,0.10491 -2.03624,-0.22256 -3.63615,-0.72772 z m 9.86441,-2.38862 c -3.03774,-1.60156 -4.28272,-4.68983 -4.34223,-10.77127 -0.0872,-8.91151 4.04322,-22.35264 6.998128,-22.77317 1.8374,-0.26148 2.08197,0.45879 2.67063,7.86495 0.20665,2.59985 1.04571,6.65994 1.86458,9.02242 1.8001,5.19336 1.90145,9.30705 0.28991,11.76658 -0.82384,1.25734 -0.96422,2.06456 -0.44869,2.5801 0.7931,0.79309 1.08347,0.55509 3.89003,-3.18845 1.74436,-2.32673 3.29461,-2.57595 3.91255,-0.62899 0.62771,1.97773 -0.91818,4.87377 -3.1444,5.89068 -3.45304,1.57728 -8.9376,1.68855 -11.690508,0.23715 z m -65.433657,-2.35323 c -0.70419,-0.44577 -1.0142,-2.00365 -0.98638,-4.95685 0.0493,-5.23548 1.82103,-9.04139 5.94209,-12.76452 4.35388,-3.93347 9.76917,-4.86143 5.82102,-0.99749 -0.96263,0.94211 -2.85346,2.96308 -4.20183,4.49106 -2.36727,2.68259 -2.43594,2.93085 -1.99668,7.21829 0.61568,6.00946 -1.36572,9.04309 -4.57822,7.00951 z m 83.908335,-5.1907 c -3.22953,-0.93939 -6.64574,-4.64825 -7.86882,-8.54293 -0.58919,-1.87614 -1.27187,-6.11908 -1.51708,-9.42874 -0.29002,-3.91444 -1.12028,-7.72692 -2.37558,-10.90846 -1.97952,-5.01705 -2.31212,-9.17348 -1.29666,-16.20423 0.37701,-2.61037 0.22211,-3.52668 -0.72971,-4.31663 -1.02706,-0.85238 -1.30149,-0.85207 -1.82939,0.002 -0.3559,0.57587 -0.31017,1.5858 0.10712,2.36551 0.53106,0.9923 0.4189,1.83261 -0.41437,3.10432 -0.62839,0.95905 -1.142525,2.60065 -1.142525,3.64799 0,1.20284 -0.33483,1.79083 -0.909033,1.59631 -1.10034,-0.37277 -1.36504,-8.3413 -0.41048,-12.35742 0.5007,-2.10661 1.261783,-3.04338 3.347278,-4.11995 3.32677,-1.71734 7.403,-5.96683 9.62613,-10.03526 2.49099,-4.55866 7.91855,-6.71212 10.47469,-4.15597 1.80059,1.80058 1.35197,5.08859 -1.40251,10.27911 -1.39992,2.638 -2.54531,5.67176 -2.54531,6.74169 0,1.16854 -0.7634,2.64933 -1.9118,3.70837 -3.86027,3.55987 -4.80755,9.84789 -2.12808,14.12595 0.50104,0.79996 1.29249,4.03607 1.75878,7.19136 1.29735,8.77888 4.92834,15.71641 8.22571,15.71641 1.8372,0 1.66113,-0.89344 -0.58411,-2.96397 -2.5509,-2.35241 -3.69429,-5.2343 -4.31849,-10.88467 -0.2853,-2.58266 -1.13721,-6.65095 -1.89312,-9.04064 -1.67609,-5.29864 -1.29051,-7.42155 2.08088,-11.45684 2.78257,-3.33052 3.85931,-5.57745 3.86356,-8.06241 0.001,-0.87391 0.71365,-2.73431 1.58256,-4.13423 1.09744,-1.76811 1.63079,-3.91542 1.74669,-7.03236 0.20004,-5.37988 0.2851,-5.53728 5.54352,-10.25865 4.64376,-4.16949 8.45404,-5.57969 13.16267,-4.87154 4.80877,0.72321 5.96023,1.95555 5.96023,6.37887 0,3.60402 0.0866,3.77505 1.81807,3.5887 3.40408,-0.36637 4.26403,-3.32053 2.53632,-8.71291 -0.47658,-1.48747 -0.29012,-1.63629 2.05007,-1.63629 4.62686,0 8.50377,5.05396 8.50377,11.08559 0,3.10935 -1.42802,3.62201 -6.4823,2.32716 -4.87891,-1.24992 -7.50476,-0.97947 -11.85131,1.22061 -1.67352,0.84708 -4.22806,1.36571 -6.72688,1.36571 -4.5053,0 -5.11506,0.85535 -1.82327,2.55761 2.17453,1.12449 2.33963,2.53301 0.29692,2.53301 -1.94746,0 -3.95685,2.79549 -3.95685,5.50481 0,2.27606 -0.2016,2.56725 -1.63627,2.3635 -1.20651,-0.17135 -1.89316,-1.04417 -2.61432,-3.32312 -1.11307,-3.51743 -3.02172,-4.19965 -3.02172,-1.08008 0,1.10586 0.65451,3.23183 1.45446,4.72437 0.79996,1.49254 1.45446,3.80018 1.45446,5.12809 0,4.25095 1.53232,10.88304 3.3376,14.44559 0.96416,1.90267 1.75302,4.14631 1.75302,4.98585 0,1.98491 1.17378,4.12507 3.76219,6.85961 1.14906,1.21393 2.28129,2.94561 2.51608,3.84819 0.73894,2.84068 -0.46269,6.74762 -2.86788,9.32461 -1.9609,2.10096 -3.05042,2.59148 -7.04655,3.17249 -2.59985,0.378 -6.33692,1.52404 -8.30459,2.54676 -3.87271,2.01286 -4.07041,2.04208 -7.35377,1.08704 z M 81.578682,923.6943 c -5.96992,-3.98656 -8.39435,-7.9158 -5.55622,-9.0049 1.99339,-0.76494 2.9434,-0.4945 5.01845,1.4286 1.42708,1.32257 2.24447,1.64331 2.79215,1.09563 0.54768,-0.54767 0.2145,-1.36123 -1.13809,-2.77905 -2.56185,-2.68537 -3.4068,-5.16217 -3.94891,-11.57527 -0.61184,-7.23808 -1.94158,-6.60162 -2.45138,1.17332 -0.33855,5.16306 -0.63829,6.22873 -2.08045,7.39652 -2.03942,1.65142 -3.12776,1.70047 -5.901737,0.266 -2.81674,-1.4566 -3.76566,-3.41674 -3.73241,-7.70985 0.0193,-2.49439 -0.26221,-3.5547 -0.94386,-3.5547 -0.53427,0 -1.17411,0.52825 -1.42187,1.17389 -0.31219,0.81357 -1.03348,1.06245 -2.34986,0.81081 -3.14539,-0.60128 -6.60647,0.80663 -8.93881,3.63616 -1.20651,1.46371 -2.40911,2.44583 -2.67244,2.1825 -0.26333,-0.26333 0.27659,-2.33991 1.19982,-4.61462 1.29376,-3.18762 3.3036,-5.77795 8.76626,-11.29822 3.8982,-3.9393 7.56545,-7.16237 8.14945,-7.16237 1.6032,0 6.325297,5.59249 6.295757,7.45621 -0.0143,0.8988 -0.50001,3.5977 -1.07948,5.99756 -1.26531,5.24021 -1.31281,6.18146 -0.31196,6.18146 0.42038,0 1.24952,-1.2272 1.84252,-2.72711 3.18118,-8.0463 4.30646,-9.86389 6.73502,-10.87861 2.46467,-1.0298 6.25867,-0.7176 7.06129,0.58108 0.23143,0.37446 -0.1139,2.52006 -0.76739,4.76799 -0.82574,2.84046 -0.9565,4.31883 -0.42869,4.84664 0.52781,0.52781 1.22241,-0.33361 2.27718,-2.82406 2.594,-6.12481 3.09462,-6.88269 4.83495,-7.31949 4.47809,-1.12392 6.886153,4.21462 3.83434,8.5005 -3.20402,4.49962 -4.42857,8.62848 -5.06606,17.0813 -0.34488,4.573 -0.83204,8.64624 -1.08258,9.05162 -0.96648,1.56379 -4.68918,0.6557 -8.93499,-2.17954 z M 35.601675,910.92847 c 0,-1.61724 3.87129,-7.31972 7.63123,-11.24095 3.71625,-3.87565 4.64513,-5.3383 5.08024,-7.99954 0.57261,-3.50218 2.34741,-6.9074 4.71859,-9.05328 1.35228,-1.2238 1.47794,-1.23231 1.47794,-0.10014 0,0.68056 0.97969,1.79485 2.17709,2.47621 1.1974,0.68136 2.17917,1.46514 2.1817,1.74175 0.002,0.2766 -1.95294,2.0092 -4.34548,3.85022 -4.15659,3.19842 -9.22247,10.27829 -10.53105,14.71777 -0.26221,0.88956 -1.39641,2.27223 -2.52044,3.07262 -2.19494,1.56293 -5.86982,3.15022 -5.86982,2.53534 z M 141.21027,905.3394 c -0.40984,-0.49997 -1.11534,-2.29357 -1.56777,-3.98577 -0.45242,-1.6922 -1.79318,-5.12837 -2.97945,-7.63592 -1.18627,-2.50755 -2.15712,-5.77411 -2.15743,-7.25903 -0.001,-6.44192 5.5477,-15.80115 11.40294,-19.23255 2.91058,-1.70571 4.26496,-2.02243 8.57137,-2.00438 7.66983,0.0321 13.6729,2.57919 11.41066,4.84143 -1.18596,1.18596 -1.04639,6.65322 0.24899,9.75351 1.61555,3.86656 1.39289,4.53545 -1.99988,6.00766 -1.6999,0.73762 -4.36293,2.36226 -5.91784,3.61031 -3.84737,3.08807 -6.48165,3.01217 -9.58292,-0.27614 -1.32029,-1.39992 -2.74976,-2.54531 -3.1766,-2.54531 -1.56171,0 -0.71158,2.29466 1.76924,4.77549 2.23911,2.2391 2.54531,2.98857 2.54531,6.22994 0,3.22073 -0.3113,3.99594 -2.47258,6.15722 -2.56048,2.56048 -4.80479,3.1363 -6.09404,1.56354 z m 17.73702,-26.37601 c 1.23769,-1.23769 1.75777,-2.45805 1.60322,-3.76188 -0.32373,-2.731 -1.50438,-2.79313 -3.05921,-0.16101 -1.21189,2.05155 -1.57663,2.21629 -3.97888,1.79714 -7.53764,-1.31521 -8.09891,-1.32342 -8.09891,-0.11842 0,0.71392 0.63546,1.18259 1.63627,1.20678 0.89994,0.0217 3.10891,0.64232 4.9088,1.37905 4.40136,1.80155 4.86833,1.77872 6.98871,-0.34166 z m -85.536168,7.27953 c -1.76138,-1.79471 -3.789477,-3.44941 -4.506897,-3.6771 -1.76618,-0.56056 -1.64263,-1.55334 0.55127,-4.42969 2.134657,-2.79868 5.252007,-4.61307 7.925827,-4.61307 1.76356,0 1.85419,0.19628 1.85419,4.01536 0,3.55324 0.20464,4.1086 1.77808,4.82551 3.08594,1.40604 3.23701,4.24928 0.22576,4.24928 -0.85056,0 -2.23931,0.65089 -3.08611,1.44641 l -1.53963,1.44641 z m 13.54301,-2.0948 c -1.37902,-2.15575 -2.86172,-4.13859 -3.29489,-4.4063 -0.43316,-0.26771 -0.78757,-1.94008 -0.78757,-3.71637 0,-4.57252 1.74195,-6.13854 6.82813,-6.13854 5.34433,0 6.90483,-1.36231 7.62305,-6.65487 0.72209,-5.32111 2.383373,-7.88975 5.102738,-7.88975 1.13677,0 2.8473,-0.60823 3.80119,-1.35163 4.64654,-3.62121 10.34635,-5.04273 15.09384,-3.76436 2.86701,0.772 4.96267,2.9833 4.11978,4.34712 -0.22282,0.36053 -2.77418,0.48393 -5.66967,0.2742 -4.68751,-0.33953 -5.54351,-0.19312 -7.80984,1.3358 -1.39992,0.94441 -3.19981,3.06127 -3.99977,4.70411 -2.09955,4.31182 -3.13095,5.31895 -7.36448,7.19122 -5.234408,2.3149 -6.195908,4.05799 -6.337058,11.48826 -0.18173,9.56676 -2.98976,11.32763 -7.30545,4.58111 z m -28.128747,-3.84178 c -1.0412,-2.73855 -0.4485,-3.68469 2.8676,-4.57762 2.19492,-0.59103 3.53346,-1.6495 5.53628,-4.37789 3.156097,-4.29946 9.560387,-7.78785 15.613837,-8.50479 3.14509,-0.37249 4.31952,-0.89803 5.71624,-2.55794 1.80011,-2.1393 5.80166,-4.60735 6.43814,-3.97087 0.19522,0.19523 0.002,1.01598 -0.4312,1.82389 -0.43238,0.80792 -0.78615,2.44884 -0.78615,3.6465 0,2.85431 -1.70478,4.46314 -4.72934,4.46314 -2.51632,0 -12.01175,3.21959 -16.88095,5.72379 -3.217217,1.65459 -6.101187,4.58809 -7.778207,7.91178 -1.5554,3.08265 -4.4703,3.3026 -5.56625,0.42001 z M 167.95766,865.53458 c -0.91142,-0.57977 -0.93684,-0.94235 -0.15459,-2.20428 1.05351,-1.69951 1.31823,-6.52721 0.54977,-10.02599 -0.49688,-2.26228 -0.44318,-2.3254 1.97849,-2.3254 3.64056,0 9.92266,2.367 14.69916,5.53842 2.66882,1.77199 5.40084,2.93597 7.55333,3.21809 l 3.37222,0.44198 -2.18169,0.93249 c -2.7714,1.18454 -7.45113,0.0927 -10.90994,-2.54549 -1.32474,-1.01043 -3.5335,-2.01969 -4.90835,-2.2428 -2.11308,-0.3429 -2.74221,-0.0974 -4.06738,1.58729 -0.86219,1.09611 -1.56764,3.02874 -1.56764,4.29472 0,3.45158 -1.8971,4.89981 -4.36338,3.33097 z"
       id="path4144"
       inkscape:connector-curvature="0"
       sodipodi:nodetypes="ssssssssssssssssssssssscsscsssssssssssssssssccssssssssssscsssssscsscsssssssssssssssssssssssssssssssssssssssssscsssssccssssssssssssscssssssssssssscssssssscssscssssssscssssssscssssssssssssccssssssssssssssssssssssssssssssssssssscssccssssssssssssssssssssssssssssssssscsscsssssscscsssssssssssccccssssssssscscccssscsssssssssssssssssssssscsssssssssscssssssscscssscsscsssscsssssssssssscssssssssssscssssscsssssssssssssssssscsssssssssssssssssssssssssssccssssssssssscsssssscssssssssssssssssssscssssssscssssssssssssssssscssscsssssscsssssssssssssssssssssccssssssssssscssssss" />
  </g>
</svg>
